<svg width="1920" height="1024" xmlns="http://www.w3.org/2000/svg" xmlns:svg="http://www.w3.org/2000/svg">
  <path fill="#900" d="m116.792748,884.471778l25.92,0c1.423,-0.088 3.087,-0.138 4.763,-0.138c9.047,0 17.754,1.455 25.9,4.144c5.457,2.515 10.372,6.812 13.739,12.18c3.516,5.566 5.556,12.18 5.556,19.269c0,0.585 -0.014,1.167 -0.041,1.746c0.027,0.393 0.04,0.948 0.04,1.507c0,7.308 -2.289,14.081 -6.19,19.641c-4.469,5.947 -10.693,10.518 -17.905,12.934l29.818,57.036l-26.56,0l-28.8,-54.4l-2.24,0l0,54.4l-24.64,0l0,-128l0.64,-0.319zm24.64,49.92l7.36,0c0.577,0.037 1.252,0.058 1.932,0.058c5.121,0 9.962,-1.203 14.254,-3.342c2.411,-1.862 4.074,-4.932 4.074,-8.391c0,-0.51 -0.036,-1.011 -0.106,-1.502c0.011,-0.069 0.014,-0.216 0.014,-0.363c0,-2.607 -0.843,-5.018 -2.271,-6.974c-1.529,-1.842 -3.45,-3.355 -5.637,-4.403c-2.119,-0.355 -4.449,-0.532 -6.82,-0.532s-4.701,0.178 -6.976,0.521l-6.144,-0.032l0.32,24.96zm130.56,-49.92l24.96,0l0,48l42.88,0l0,-48l24.32,0l0,128l-24.32,0l0,-56l-43.52,0l0,56l-24.96,0l0,-128l0.64,0zm172.48,0l24,0l0,128l-24,0l0,-128zm104.32,0l23.36,0l54.72,84.16l0,-84.16l24.32,0l0,128l-22.4,0l-54.72,-84.16l0,84.16l-25.28,0l0,-128zm246.4,-3.52c0.208,-0.002 0.454,-0.004 0.7,-0.004c18.057,0 34.367,7.478 46.003,19.506c12.159,12.367 19.655,29.317 19.655,48.018s-7.496,35.651 -19.648,48.01c-12.121,12.604 -29.141,20.439 -47.991,20.439s-35.869,-7.836 -47.979,-20.427c-11.892,-12.084 -19.222,-28.647 -19.222,-46.923c0,-0.161 0.001,-0.323 0.002,-0.484c-0.001,-0.089 -0.001,-0.224 -0.001,-0.359c0,-12.198 3.204,-23.649 8.818,-33.554c11.628,-18.974 32.597,-31.667 56.531,-31.667c0.314,0 0.627,0.002 0.94,0.007l2.192,-2.562zm0,24c-0.227,-0.005 -0.494,-0.007 -0.762,-0.007c-11.353,0 -21.619,4.655 -28.993,12.161c-7.553,7.822 -12.203,18.477 -12.203,30.219c0,0.628 0.013,1.254 0.04,1.876c-0.023,0.389 -0.034,0.949 -0.034,1.512c0,12.913 5.975,24.43 15.312,31.938c7.191,6.038 16.448,9.668 26.553,9.668c0.256,0 0.511,-0.002 0.765,-0.007c0.165,0.004 0.404,0.006 0.644,0.006c11.337,0 21.555,-4.793 28.737,-12.464c7.591,-8.073 12.243,-18.944 12.243,-30.902s-4.652,-22.829 -12.244,-30.903c-7.358,-7.488 -17.623,-12.144 -28.977,-12.144c-0.268,0 -0.535,0.003 -0.802,0.008l-0.279,-0.961zm181.76,-20.48l24.96,0l49.28,128l-25.6,0l-9.92,-26.24l-50.88,0l-10.24,26.24l-25.28,0l47.68,-128zm12.48,33.92l-17.28,43.84l34.56,0l-17.28,-43.84zm133.76,-33.92l64,0l0,23.68l-40,0l0,23.36l39.36,0l0,23.36l-39.36,0l0,57.6l-24,0l0,-128zm140.16,0l25.92,0c1.423,-0.088 3.087,-0.138 4.763,-0.138c9.047,0 17.754,1.455 25.9,4.144c5.457,2.515 10.372,6.812 13.739,12.18c3.516,5.566 5.556,12.18 5.556,19.269c0,0.585 -0.014,1.167 -0.041,1.746c0.027,0.393 0.04,0.948 0.04,1.507c0,7.308 -2.289,14.081 -6.19,19.641c-4.469,5.947 -10.693,10.518 -17.905,12.934l29.818,57.036l-28.16,0l-28.8,-54.4l-2.24,0l0,54.4l-24.32,0l0,-128l1.92,-0.319zm24.32,49.92l7.68,0c0.577,0.037 1.252,0.058 1.932,0.058c5.121,0 9.962,-1.203 14.254,-3.342c2.411,-1.862 4.074,-4.932 4.074,-8.391c0,-0.51 -0.036,-1.011 -0.106,-1.502c0.011,-0.069 0.014,-0.216 0.014,-0.363c0,-2.607 -0.843,-5.018 -2.271,-6.974c-1.529,-1.842 -3.45,-3.355 -5.637,-4.403c-2.119,-0.355 -4.449,-0.532 -6.82,-0.532s-4.701,0.178 -6.976,0.521l-6.144,-0.032l0,24.96zm128.96,-49.92l24,0l0,128l-24,0l0,-128zm222.72,22.4l-17.28,16c-9.499,-11.051 -23.433,-18.059 -39.009,-18.24c-23.474,0.537 -42.273,19.667 -42.273,43.189c0,0.116 0,0.232 0.001,0.348c-0.003,0.181 -0.005,0.416 -0.005,0.651c0,7.994 2.14,15.489 5.878,21.942c3.666,6.374 8.983,11.691 15.365,15.362c6.553,3.732 14.159,5.868 22.263,5.868c0.119,0 0.238,0 0.357,-0.001c0.17,0.003 0.392,0.004 0.615,0.004c6.823,0 13.315,-1.414 19.2,-3.965c7.174,-3.59 13.537,-8.419 18.842,-14.23l16.365,17.23c-7.527,7.84 -16.432,14.289 -26.337,18.969c-8.876,3.674 -18.552,5.674 -28.694,5.674c-0.228,0 -0.456,-0.001 -0.684,-0.003c-1.139,0.077 -2.51,0.121 -3.891,0.121c-35.346,0 -64,-28.654 -64,-64c0,-1.168 0.031,-2.329 0.093,-3.481c-0.007,0.069 -0.008,-0.039 -0.008,-0.147c0,-12.37 3.326,-23.963 9.134,-33.933c5.871,-9.847 14.336,-18.003 24.451,-23.511c10.202,-6.002 22.078,-9.449 34.76,-9.449c0.16,0 0.32,0.001 0.48,0.002c0.296,-0.005 0.674,-0.008 1.053,-0.008c11.245,0 21.883,2.601 31.344,7.234c9.542,4.566 17.955,11.035 24.778,18.918l-2.798,-0.544zm113.92,-22.4l24.96,0l49.28,128l-25.28,0l-9.92,-26.24l-52.8,0l-10.24,26.24l-25.28,0l49.28,-128zm11.52,33.92l-17.28,43.84l34.56,0l-17.28,-43.84zm-235.52,-505.92s7.04,32 32,33.92s16.96,-43.52 0,-29.76c-3.759,3.327 -8.732,5.359 -14.18,5.359c-7.396,0 -13.918,-3.745 -17.772,-9.443l-0.048,-0.076zm-142.4,-357.12c-10.24,-1.92 -7.68,6.72 0,15.04s1.92,22.4 -5.44,32c-2.911,5.941 -4.613,12.929 -4.613,20.315c0,15.701 7.693,29.606 19.515,38.15c23.178,11.935 32.138,32.095 39.498,37.855s21.76,4.48 20.16,-7.04c-0.003,-0.295 -0.005,-0.644 -0.005,-0.992c0,-15.501 3.3,-30.231 9.235,-43.526c3.889,-7.001 9.969,-7.001 -0.271,-42.841s-23.68,-32 -43.84,-32s-25.28,-15.68 -35.52,-17.6l1.281,0.639zm-1136.32,79.04c42.24,-37.12 86.72,-92.16 185.6,-98.24s138.24,-7.68 234.56,-20.16s92.16,52.48 215.36,58.56s215.36,-41.28 280.96,-54.4s92.16,13.44 121.6,8s90.24,-41.92 148.48,-4.16s43.84,78.72 89.28,96c12.921,4.307 27.797,6.792 43.254,6.792c29.61,0 57.09,-9.119 79.785,-24.703c28.641,-17.289 40.801,-44.489 61.281,-54.729c7.811,-4.361 17.137,-6.928 27.063,-6.928c3.441,0 6.81,0.309 10.08,0.9c-11.392,15.755 -19.451,34.497 -23.245,54.742c-2.351,32.863 -21.655,59.86 -48.901,72.982c-25.797,7.905 -49.477,7.265 -45.957,25.825c6.354,43.881 17.54,83.442 33.201,120.655c10.319,11.825 24.079,23.025 44.239,2.225c15.928,-18.51 29.714,-39.563 40.548,-62.294s11.292,123.734 0.732,148.054s10.56,13.12 21.12,8.64c35.692,-15.474 66.027,-36.99 91.075,-63.546c35.965,-38.854 55.165,-59.014 54.525,-34.054s-54.4,119.36 -67.52,166.72s-42.88,40.64 -42.88,59.2s33.92,49.6 26.24,76.16s-36.8,64 -71.68,64s-32,-12.16 -64,-2.56s-37.76,-13.12 -70.72,-23.04c-46.779,-18.981 -86.897,-40.451 -124.378,-65.55c-11.69,-10.064 -24.349,-22.317 -35.948,-35.525c-23.994,-32.365 -96.314,-113.325 -115.834,-163.245c-23.68,-59.52 -48.96,-138.24 -48.96,-138.24c0.054,53.819 4.474,106.566 12.925,157.954c12.675,53.886 43.075,125.886 81.475,157.246c-25.969,7.755 -47.799,22.752 -63.808,42.633c-23.232,35.127 -44.032,40.887 -52.672,59.767c-3.832,12.924 -6.038,27.773 -6.038,43.138c0,18.36 3.149,35.984 8.936,52.362c5.101,9.46 14.701,36.34 24.941,62.9l-303.04,0c19.52,-32 48,-78.72 59.52,-98.88c15.68,-27.84 32,-58.88 16.32,-61.76c-6.08,-11.52 -16.96,-32 -21.76,-45.44c-5.743,-18.871 -16.958,-34.643 -31.779,-45.919c-19.154,-8.149 -35.243,-16.72 -50.456,-26.532c-20.485,-15.87 1.275,-119.87 7.355,-125.31s0,-7.04 0,-7.04c-19.236,39.137 -38.536,86.9 -54.636,136.113c-10.004,43.087 21.996,116.047 32.556,139.727c-57.96,13.062 -124.523,20.546 -192.835,20.546c-15.239,0 -30.391,-0.372 -45.447,-1.109c-68.393,-3.781 -132.371,-28.925 -184.255,-68.974s-111.543,-84.224 -148.023,-151.744c-34.388,-64.491 -54.584,-141.041 -54.584,-222.309c0,-15.807 0.764,-31.435 2.257,-46.85c11.367,-91.801 -8.793,37.159 -8.793,37.159s-8.64,256 6.08,310.72c-18.698,30.006 -34.392,64.619 -45.306,101.29c-2.694,22.55 -8.774,105.43 -12.934,156.95l-166.72,0c27.373,-40.61 50.579,-87.312 67.279,-137.002c10.801,-55.638 -10.319,-109.078 -9.359,-159.318s-24.32,-96 -25.28,-125.44s-8.64,-106.56 8,-139.84s-112.64,93.44 -144.64,121.28l0,-72.32c17.6,-9.6 204.16,-144.32 245.76,-182.72l0.001,0.641zm230.4,662.08c-17.521,19.055 -42.308,31.193 -69.937,31.997l-86.223,0.003c13.947,-37.294 24.223,-80.662 28.924,-125.687c0.196,-37.193 8.836,-66.313 5.636,-87.753c38.473,36.271 80.253,70.126 124.459,100.722c6.794,4.407 10.576,6.439 14.515,8.182c-0.824,26.714 -7.287,51.384 -17.878,73.716l0.504,-1.18z" id="svg_1"/>
</svg>